<?xml version="1.0" encoding="utf-8"?>
<!-- Generator: Adobe Illustrator 22.1.0, SVG Export Plug-In . SVG Version: 6.00 Build 0)  -->
<svg version="1.1" id="图层_1" xmlns="http://www.w3.org/2000/svg" xmlns:xlink="http://www.w3.org/1999/xlink" x="0px" y="0px"
	 viewBox="0 0 412 171" style="enable-background:new 0 0 412 171;" xml:space="preserve">
<style type="text/css">
	.st0{fill:#E60012;}
</style>
<g>
	<g id="XMLID_210_">
		<g id="XMLID_25_">
			<path id="XMLID_582_" d="M201.3,126.5v-2.7c-2.4-0.5-5.1-0.7-7.8-0.7c-2.7,0-5.4,0.2-7.8,0.7v14.6h2.7v-5l0.3,0
				c1.6,0.2,3.3,0.3,4.8,0.3c2.7,0,5.4-0.2,7.8-0.7v-2.7c-3.7,0.7-8.4,0.9-12.7,0.4l-0.2,0v-4.7l0.2,0
				C192.9,125.6,197.6,125.7,201.3,126.5z"/>
			<path id="XMLID_581_" d="M220.3,137.7v-14.6h-2.7v12.3l-0.2,0c-3.2,0.4-6.6,0.4-9.8,0l-0.2,0v-12.3h-2.7v14.6
				C209.4,138.6,215.5,138.6,220.3,137.7z"/>
			<rect id="XMLID_580_" x="272.4" y="123.1" width="2.7" height="15.3"/>
			<path id="XMLID_579_" d="M266.1,133.7l-0.4-0.6c-1-1.3-2.1-2.6-3.2-3.8c-2.2-2.4-4.5-4.6-6.6-6.3h-2.7v15.3h2.7v-11.8l0.4,0.4
				c1.5,1.3,2.9,2.7,4.2,4.2c2.1,2.4,4.1,4.9,5.6,7.2h2.7v-15.3h-2.7V133.7z"/>
			<path id="XMLID_578_" d="M309.2,133.7l-0.4-0.6c-1-1.3-2.1-2.6-3.2-3.8c-2.2-2.4-4.5-4.6-6.6-6.3h-2.7v15.3h2.7v-11.8l0.4,0.4
				c1.5,1.3,2.9,2.7,4.2,4.2c2.1,2.4,4.1,4.9,5.6,7.2h2.7v-15.3h-2.7V133.7z"/>
			<path id="XMLID_575_" d="M289.2,123.2c-0.9-0.1-1.9-0.1-2.8-0.1l-0.3,0c-0.3,0-0.5,0-0.8,0l-0.3,0c-1,0-1.9,0.1-2.8,0.1
				l-4.7,15.1h2.8l1.5-4.8l0.2,0c2.5,0.2,4.9,0.2,7.4,0l0.2,0l1.5,4.8h2.8L289.2,123.2l0.2-0.1l0,0L289.2,123.2z M288.5,131
				c-1,0.1-1.9,0.1-2.8,0.1c-0.9,0-1.8,0-2.8-0.1l-0.3,0l1.6-5.1l0.2,0c0.9,0,1.8,0,2.7,0l0.2,0l1.6,5.1L288.5,131z"/>
			<path id="XMLID_572_" d="M373.1,138.4h2.8l-4.7-15.1c-0.9-0.1-1.9-0.1-2.8-0.1l-0.3,0c-0.3,0-0.5,0-0.8,0l-0.3,0
				c-1,0-1.9,0.1-2.8,0.1l-4.7,15.1h2.8l1.5-4.8l0.2,0c2.5,0.2,4.9,0.2,7.4,0l0.2,0L373.1,138.4z M370.5,131c-1,0.1-1.9,0.1-2.8,0.1
				c-0.9,0-1.8,0-2.8-0.1l-0.3,0l1.6-5.1l0.2,0c0.9,0,1.8,0,2.7,0l0.2,0l1.6,5.1L370.5,131z"/>
			<path id="XMLID_571_" d="M347.9,135.6l-0.2,0v-12.5H345v14.8c4,0.6,8.5,0.6,12.4,0v-2.7C354.4,135.7,351.1,135.8,347.9,135.6z"/>
			<rect id="XMLID_570_" x="378.3" y="123.1" width="2.7" height="15.3"/>
			<rect id="XMLID_569_" x="168.6" y="122.7" class="st0" width="1.6" height="16"/>
			<rect id="XMLID_566_" x="236" y="122.8" class="st0" width="1.5" height="15.9"/>
			<rect id="XMLID_538_" x="327.6" y="122.7" class="st0" width="1.6" height="16"/>
			<rect id="XMLID_534_" x="396.5" y="122.7" class="st0" width="1.6" height="16"/>
		</g>
	</g>
	<path id="XMLID_3_" d="M317.3,56.3v8.1c0,0.1,0,0.2-0.1,0.2c0,0-0.1,0.1-0.2,0c-7.8-2.2-18.1-3.6-29.1-3.9l-0.3,0v8.9l0.2,0
		c6.3,0.2,18.5,0.9,29.3,3.6c0.1,0,0.2,0.1,0.2,0.2v8.1c0,0.1,0,0.2-0.1,0.2c0,0-0.1,0.1-0.2,0c-7.8-2.2-18.1-3.6-29.1-3.9l-0.3,0
		v18.2l0.3,0c11-0.3,21.3-1.7,29.1-3.9c0.1,0,0.2,0,0.2,0c0.1,0,0.1,0.1,0.1,0.2v8.1c0,0.1-0.1,0.2-0.2,0.2
		c-10.7,2.8-23,3.5-29.3,3.6l-0.2,0v5.6c0,0.1-0.1,0.3-0.3,0.3h-7.8c-0.1,0-0.3-0.1-0.3-0.3v-5.6l-0.2,0c-6.3-0.2-18.5-0.9-29.3-3.6
		c-0.1,0-0.2-0.1-0.2-0.2v-8.1c0-0.1,0-0.2,0.1-0.2c0,0,0.1,0,0.1,0c0,0,0,0,0.1,0c0.8,0.2,1.6,0.5,2.5,0.7l0.3,0.1V72.8
		c0-0.1,0.1-0.2,0.2-0.2c8.2-1.8,16.8-2.5,22.7-2.8v8.3c-5,0.2-9.9,0.7-14.4,1.4l-0.2,0v15.2l0.2,0c5.5,0.8,11.5,1.3,17.7,1.5l0.3,0
		V60.8l-0.3,0c-11,0.3-21.3,1.7-29.1,3.9c-0.1,0-0.2,0-0.2,0c-0.1,0-0.1-0.1-0.1-0.2V52.4c0-0.1,0.1-0.3,0.3-0.3h7.8
		c0.1,0,0.3,0.1,0.3,0.3v2l0.3,0c10.4-1.7,20.3-2,25.2-2c12.1,0,24.7,1.4,33.7,3.7C317.2,56.1,317.3,56.2,317.3,56.3z M188.8,83.3
		c0.1,0,0.2-0.1,0.2-0.2V62.7c0-0.1,0-0.1-0.1-0.2c0,0-0.1-0.1-0.2-0.1c-7.6,0.6-14.3,1.7-20,3.1c-0.1,0-0.2,0.1-0.2,0.2V73
		c0,0.1,0,0.1,0.1,0.2c0,0,0.1,0.1,0.2,0c3.4-1,7.2-1.8,11.5-2.4l0.3,0v6.1l-0.2,0c-4.3,0.6-8.2,1.3-11.7,2.2
		c-0.1,0-0.2,0.1-0.2,0.2v27.2c0,0.1,0.1,0.2,0.2,0.2c2.4,0.6,5.1,1.2,7.9,1.6c0.1,0,0.1,0,0.2-0.1c0,0,0.1-0.1,0.1-0.2V84.8h0.4
		C181,84.2,184.8,83.7,188.8,83.3z M236.4,79.3v27.2c0,0.1-0.1,0.2-0.2,0.2c-9,2.3-21.6,3.7-33.7,3.7c-3.1,0-6.3-0.1-9.6-0.3
		c-0.1,0-0.2-0.1-0.2-0.2v-34c0-0.1,0.1-0.2,0.2-0.2c3.2-0.2,6.5-0.3,9.6-0.3c12.1,0,24.7,1.4,33.7,3.7h0
		C236.3,79.1,236.4,79.2,236.4,79.3z M211.2,96.3H201v6.7l0.7,0c0.3,0,0.5,0,0.8,0c2.9,0,5.7-0.1,8.5-0.2l0.2,0V96.3z M211.2,83
		l-0.2,0c-2.8-0.1-5.7-0.2-8.5-0.2c-0.3,0-0.5,0-0.8,0l-0.7,0v6.7h10.2V83z M228,96.3h-10v6l0.3,0c3.3-0.3,6.5-0.8,9.5-1.3l0.2,0
		V96.3z M228,84.9l-0.2,0c-3-0.5-6.2-1-9.5-1.3l-0.3,0v6h10V84.9z M188.8,109.8c0.1,0,0.1,0,0.2-0.1c0,0,0.1-0.1,0.1-0.2V87.5
		c0-0.1,0-0.1-0.1-0.2c0,0-0.1-0.1-0.2-0.1c-2.7,0.2-5.4,0.5-8,0.9c-0.1,0-0.2,0.1-0.2,0.2v20.4c0,0.1,0.1,0.2,0.2,0.2
		C183.4,109.3,186.1,109.6,188.8,109.8z M189,58.4v-6.9c0-0.1,0-0.1-0.1-0.2c0,0-0.1-0.1-0.2-0.1c0,0,0,0,0,0
		c-7.6,0.6-14.3,1.7-20,3.1c-0.1,0-0.2,0.1-0.2,0.2v7.2c0,0.1,0,0.1,0.1,0.2c0,0,0.1,0.1,0.2,0c3.9-1.1,10.4-2.6,19.9-3.4
		C189,58.6,189,58.5,189,58.4z M236.2,65.6c-9-2.3-21.6-3.7-33.7-3.7c-3.1,0-6.3,0.1-9.6,0.3c-0.1,0-0.2,0.1-0.2,0.2l0,9.4
		c0,0.1,0,0.1,0.1,0.2c0,0,0.1,0.1,0.2,0.1c2.6-0.1,5.3-0.2,7.9-0.3c0.1,0,0.2-0.1,0.2-0.2l0-3.1l0.1-0.1l0.1,0c0.4,0,0.8,0,1.2,0
		c9.1,0,17.8,0.7,25.4,2.1l0.2,0v3.2c0,0.1,0.1,0.2,0.2,0.2c2.8,0.5,5.5,1,7.9,1.6c0.1,0,0.2,0,0.2,0c0.1,0,0.1-0.1,0.1-0.2v-9.4
		C236.4,65.7,236.3,65.6,236.2,65.6z M236.2,54.3c-9-2.3-21.6-3.7-33.7-3.7c-3.1,0-6.3,0.1-9.6,0.3c-0.1,0-0.2,0.1-0.2,0.2v6.9
		c0,0.1,0,0.1,0.1,0.2c0,0,0.1,0.1,0.2,0.1c3.1-0.2,6.4-0.3,9.6-0.3c17.2,0,28.4,2.5,33.6,4c0.1,0,0.2,0,0.2,0
		c0.1,0,0.1-0.1,0.1-0.2v-7.2C236.4,54.5,236.3,54.4,236.2,54.3z M368.4,80.1V60.8l0.3,0c11,0.3,21.3,1.7,29.1,3.9
		c0.1,0,0.2,0,0.2,0c0.1,0,0.1-0.1,0.1-0.2v-8.1c0-0.1-0.1-0.2-0.2-0.2c-10.7-2.8-23-3.5-29.3-3.6l-0.2,0v-2.1
		c0-0.1-0.1-0.3-0.3-0.3h-7.8c-0.1,0-0.3,0.1-0.3,0.3v2.1l-0.2,0c-6.3,0.2-18.5,0.9-29.3,3.6c-0.1,0-0.2,0.1-0.2,0.2v8.1
		c0,0.1,0,0.2,0.1,0.2c0,0,0.1,0.1,0.2,0c7.8-2.2,18.1-3.6,29.1-3.9l0.3,0v19.3l-0.3,0c-11-0.3-21.3-1.7-29.1-3.9
		c-0.1,0-0.2,0-0.2,0c-0.1,0-0.1,0.1-0.1,0.2v8.1c0,0.1,0.1,0.2,0.2,0.2c4.3,1.1,9.3,2,14.8,2.6l0.5,0.1l-0.3,0.4
		c-4,5-9.2,9-15,11.7c-0.1,0-0.1,0.1-0.1,0.2v8.5c0,0.1,0,0.2,0.1,0.2c0.1,0,0.2,0.1,0.2,0c10.1-3.8,18.9-11,24.7-20.1l0.1-0.1
		l0.1,0c1.4,0.1,2.9,0.1,4.2,0.2l0.2,0v21.7c0,0.1,0.1,0.3,0.3,0.3h7.8c0.1,0,0.3-0.1,0.3-0.3V88.5l0.2,0c1.4,0,2.8-0.1,4.2-0.2
		l0.1,0l0.1,0.1c5.8,9.1,14.6,16.3,24.7,20.1c0.1,0,0.2,0,0.2,0c0.1,0,0.1-0.1,0.1-0.2v-8.5c0-0.1-0.1-0.2-0.1-0.2
		c-5.8-2.7-11-6.7-15-11.7l-0.3-0.4l0.5-0.1c5.5-0.6,10.5-1.5,14.8-2.6c0.1,0,0.2-0.1,0.2-0.2v-8.1c0-0.1,0-0.2-0.1-0.2
		c0,0-0.1-0.1-0.2,0c-7.8,2.2-18.1,3.6-29.1,3.9L368.4,80.1z M342.7,74.7c3.5,0.4,7.1,0.8,10.9,1c0.1,0,0.1,0,0.2-0.1
		c0.1,0,0.1-0.1,0.1-0.2v-7.1c0-0.1-0.1-0.2-0.2-0.2c-3.8-0.2-7.4-0.6-10.8-1c0,0,0,0,0,0c-0.1,0-0.1,0-0.2,0.1
		c-0.1,0-0.1,0.1-0.1,0.2v7.1C342.5,74.5,342.6,74.7,342.7,74.7z M374.7,68.3v7.1c0,0.1,0,0.1,0.1,0.2c0,0,0.1,0.1,0.2,0.1
		c3.7-0.2,7.4-0.5,10.9-1c0.1,0,0.2-0.1,0.2-0.3v-7.1c0-0.1,0-0.1-0.1-0.2c0,0-0.1-0.1-0.2-0.1c0,0,0,0,0,0c-3.4,0.5-7.1,0.8-10.8,1
		C374.8,68.1,374.7,68.2,374.7,68.3z"/>
	<path id="XMLID_97_" class="st0" d="M27.3,74.8c2.7,0.9,5.6,1.6,8.8,2.3c4.5,1,9.4,1.7,14.8,2.2l0.1,0l0.1,0
		c6.3,0.6,12.3,0.9,16.7,1l0.7,0c1.1,0,2.2,0.1,3.2,0.1c0.7,0,1.4,0,2.2,0c1.1,0,2.1,0,3,0l0.7,0l0.7,0c0.9,0,1.9,0,3,0
		c0.7,0,1.4,0,2.2,0c1,0,2.1,0,3.2-0.1l0.7,0c4.5-0.1,10.4-0.4,16.7-1c1.8-0.2,3.6-0.4,5.5-0.6c6.9-0.9,12.9-2.2,18.1-3.9
		c6.8-2.2,10.9-4.7,12.5-7.7c0.6-1,0.5-2.7,0.5-2.8c0-2.9-1.8-5.4-5.2-7.5c0.7,3.3-5,5.8-7.5,6.8l-0.1,0.1l-0.1,0.1
		c-1.7,0.7-8.1,2.9-21.8,4.4c-8.7,1-18.3,1.5-28.6,1.5c-17.7,0-30.1-1.5-37.4-2.7c-5.5-0.9-9.9-2-12.9-3.2c-0.1,0-8.3-3.3-7.7-6.9
		c-3.5,2.1-5.2,4.7-5.2,7.5c0,0.2-0.1,1.8,0.5,2.8C16.4,70,20.5,72.6,27.3,74.8z M77.8,96.6c28.1,0,52.8-4.2,62.8-10.8l0-11.2
		c-9.8,6.5-35.1,10.8-62.8,10.8c-5,0-10-0.1-14.9-0.4v27.3c4.9,0.3,9.9,0.4,14.9,0.4c19.5,0,37.9-2.1,50.6-5.7l0.8-0.2v21.1
		l-0.5,0.1c-12.8,3.7-31.4,5.8-51,5.8c-1,0-1.9,0-2.9,0l-0.7,0v-4.9l0.7,0c1,0,1.9,0,2.9,0c17.5,0,34-1.6,46.5-4.6V113
		c-12.5,3-29.4,4.7-46.5,4.7c-5,0-10-0.1-14.9-0.4v27.3c4.9,0.3,9.9,0.4,14.9,0.4c27.5,0,52-4.1,62.3-10.5c0.5-0.3,0.5-0.6,0.5-1.1
		V90.7c-9.8,6.5-35.1,10.8-62.8,10.8c-1,0-1.9,0-2.9,0l-0.7,0v-4.9l0.7,0C75.8,96.6,76.8,96.6,77.8,96.6z M30.3,140.1
		c3.4,0.9,7.3,1.6,11.3,2.3v-16.1l0.8,0.1c1.2,0.2,2.4,0.4,3.6,0.5l0.6,0.1v16.1c3.6,0.5,7.4,0.9,11.3,1.2v-27.3
		c-10.4-0.8-20-2.2-27.6-4.1V140.1z M13.9,73.6l0.1,0.2c0,0,0,0,0,0v11.2c5.4,4.1,16.8,7.5,32,9.5l0.6,0.1v5l-0.7-0.1
		c-15.1-2-26.4-5.4-31.9-9.5l0,42.6l0,0.1c0,0.4,0,0.7,0.4,1c2.5,1.8,6.2,3.4,11,4.9l0-32.3l0.8,0.3c8.4,2.5,19.3,4.3,31.8,5.3V84.6
		C37.2,83,20.8,79,14,73.9L13.9,73.6z M73.4,51.7c-3.5-3.5-5.4-8.1-5.4-13c0-4.8,1.8-9.3,5.1-12.7l5,5c-2,2.1-3,4.8-3,7.7
		c0,1.1,0.2,2.2,0.5,3.3c0.5,1.7,1.5,3.3,2.8,4.6c0.9,0.9,1.7,1.9,2.4,3l0.1,0.2l0.2,0c1.5,0,3,0.1,4.5,0.1c0.9,1.5,2,2.9,3.2,4.1
		c1.7,1.7,2.5,4.1,2.2,6.5c-1.3-0.1-2.6-0.1-3.7-0.1l-0.7,0c-0.9,0-1.7,0-2.5-0.1l-0.4,0l0,0.4c-0.1,1.3-0.3,2.5-0.6,3.7
		c-2.8,0.1-5.2,0.1-7.6,0.1c0.7-1.5,1.1-3.2,1.1-4.9C76.7,56.7,75.5,53.8,73.4,51.7z M58,63.8c2.3,0.2,4.8,0.4,7.3,0.5
		c0.3-1.1,0.5-2.2,0.5-3.4l0-0.4l2.6-0.1c1.1,0,2.2-0.1,3.2-0.1c0.5,0,1.1,0,1.6,0c0.2-2.3-0.6-4.6-2.2-6.3
		c-1.2-1.2-2.3-2.6-3.2-4.1c-1.4,0.1-2.9,0.1-4.3,0.2l-0.2,0l-0.1-0.2c-0.8-1.3-1.7-2.4-2.6-3.4c-1.3-1.3-2.3-2.9-2.8-4.7
		c-0.3-1.1-0.5-2.2-0.5-3.3c0-2.9,1.1-5.6,3-7.7l-5-5c-3.3,3.4-5.1,7.9-5.1,12.7c0,4.9,1.9,9.5,5.4,13C58.6,54.9,59.6,59.7,58,63.8z
		 M45.1,62.2c1.9-0.2,3.9-0.5,5.9-0.7c1.4-0.1,2.8-0.3,4.2-0.4c0.5-2.6-0.3-5.2-2.1-7c-0.8-0.8-1.6-1.7-2.3-2.7
		c-10.5,1.4-16.6,3.5-16.6,5.8C34.2,59.2,37.9,60.8,45.1,62.2z M94.7,59.7c0,1.5-0.3,3-0.9,4.4c2.7-0.2,5.3-0.4,7.6-0.7
		c0.1-0.6,0.2-1.2,0.3-1.7l0-0.4c0,0,3.4,0.2,8.3,0.9c7.2-1.4,10.9-3,10.9-4.9c0-2.6-7.9-5-21.1-6.3l-0.2,0l-0.1-0.2
		c-0.8-1.5-1.9-2.8-3-4c-1.1-1.1-2-2.4-2.5-3.9c-0.5-1.3-0.8-2.7-0.8-4.1c0-2.9,1.1-5.6,3-7.7l-5-5C87.8,29.5,86,34,86,38.7
		c0,4.9,1.9,9.5,5.4,13C93.5,53.8,94.7,56.7,94.7,59.7z"/>
</g>
</svg>
