<?xml version="1.0" encoding="utf-8"?>
<!-- Generator: Adobe Illustrator 22.1.0, SVG Export Plug-In . SVG Version: 6.00 Build 0)  -->
<svg version="1.1" id="Layer_1" xmlns="http://www.w3.org/2000/svg" xmlns:xlink="http://www.w3.org/1999/xlink" x="0px" y="0px"
	 viewBox="0 0 200 61.1" style="enable-background:new 0 0 200 61.1;" xml:space="preserve">
<style type="text/css">
	.st0{fill:#E50012;}
	.st1{fill:#FFFFFF;}
</style>
<rect id="XMLID_569_" x="83.5" y="46.5" class="st0" width="0.7" height="7.1"/>
<rect id="XMLID_566_" x="113.3" y="46.5" class="st0" width="0.7" height="7"/>
<rect id="XMLID_538_" x="153.8" y="46.5" class="st0" width="0.7" height="7.1"/>
<rect id="XMLID_534_" x="184.3" y="46.5" class="st0" width="0.7" height="7.1"/>
<g>
	<g>
		<path id="XMLID_582_" class="st1" d="M97.9,48.1V47c-1-0.2-2.2-0.3-3.4-0.3c-1.2,0-2.4,0.1-3.4,0.3v6.5h1.2v-2.2h0.1
			c0.7,0.1,1.4,0.1,2.1,0.1c1.2,0,2.4-0.1,3.4-0.3v-1.2c-1.6,0.3-3.7,0.4-5.6,0.2h-0.1V48h0.1C94.2,47.7,96.3,47.8,97.9,48.1z"/>
		<path id="XMLID_581_" class="st1" d="M106.3,53.1v-6.5h-1.2V52H105c-1.4,0.2-2.9,0.2-4.3,0h-0.1v-5.4h-1.2v6.5
			C101.5,53.5,104.2,53.5,106.3,53.1z"/>
		<rect id="XMLID_580_" x="129.4" y="46.6" class="st1" width="1.2" height="6.8"/>
		<path id="XMLID_579_" class="st1" d="M126.6,51.3l-0.2-0.2c-0.4-0.6-0.9-1.2-1.4-1.7c-1-1.1-2-2-2.9-2.8h-1.2v6.8h1.2v-5.2
			l0.2,0.2c0.6,0.6,1.3,1.2,1.9,1.9c0.9,1.1,1.8,2.2,2.5,3.2h1.2v-6.8h-1.2L126.6,51.3L126.6,51.3z"/>
		<path id="XMLID_578_" class="st1" d="M145.7,51.3l-0.2-0.2c-0.4-0.6-0.9-1.2-1.4-1.7c-1-1.1-2-2-2.9-2.8H140v6.8h1.2v-5.2l0.2,0.2
			c0.6,0.6,1.3,1.2,1.9,1.9c0.9,1.1,1.8,2.2,2.5,3.2h1.2v-6.8h-1.2L145.7,51.3L145.7,51.3z"/>
		<path id="XMLID_575_" class="st1" d="M136.8,46.7c-0.4,0-0.8-0.1-1.3-0.1h-0.1c-0.1,0-0.2,0-0.3,0H135c-0.4,0-0.9,0-1.3,0.1
			l-2.1,6.7h1.2l0.7-2.1h0.1c1.1,0.1,2.2,0.1,3.3,0h0.1l0.7,2.1h1.2L136.8,46.7L136.8,46.7L136.8,46.7L136.8,46.7z M136.5,50.1
			c-0.4,0-0.8,0-1.2,0s-0.8,0-1.2,0H134l0.7-2.3h0.1c0.4,0,0.8,0,1.2,0h0.1l0.7,2.3H136.5z"/>
		<path id="XMLID_572_" class="st1" d="M173.9,53.4h1.2l-2.1-6.7c-0.4,0-0.8-0.1-1.3-0.1h-0.1c-0.1,0-0.2,0-0.3,0h-0.1
			c-0.4,0-0.9,0-1.3,0.1l-2.1,6.7h1.2l0.7-2.1h0.1c1.1,0.1,2.2,0.1,3.3,0h0.1L173.9,53.4z M172.8,50.1c-0.4,0-0.8,0-1.2,0
			s-0.8,0-1.2,0h-0.1l0.7-2.3h0.1c0.4,0,0.8,0,1.2,0h0.1l0.7,2.3H172.8z"/>
		<path id="XMLID_571_" class="st1" d="M162.8,52.2L162.8,52.2l-0.1-5.5h-1.2v6.6c1.8,0.3,3.7,0.3,5.5,0V52
			C165.7,52.2,164.2,52.3,162.8,52.2z"/>
		<rect id="XMLID_570_" x="176.3" y="46.6" class="st1" width="1.2" height="6.8"/>
	</g>
	<path id="XMLID_3_" class="st1" d="M149.2,17.1v3.6v0.1c0,0,0,0-0.1,0c-3.4-1-8-1.6-12.9-1.7h-0.1V23h0.1c2.8,0.1,8.2,0.4,13,1.6
		l0.1,0.1v3.6v0.1c0,0,0,0-0.1,0c-3.4-1-8-1.6-12.9-1.7h-0.1v8.1h0.1c4.9-0.1,9.4-0.7,12.9-1.7h0.1v0.1v3.6c0,0.1,0,0.1-0.1,0.1
		c-4.8,1.2-10.2,1.5-13,1.6h-0.1V41c0,0.1,0,0.1-0.1,0.1h-3.5c-0.1,0-0.1,0-0.1-0.1v-2.5h-0.1c-2.8-0.1-8.2-0.4-13-1.6l-0.1-0.1
		v-3.6v-0.1c0,0,0,0,0.1,0l0,0c0.3,0.1,0.7,0.2,1.1,0.3h0.1v-9c0-0.1,0-0.1,0.1-0.1c3.6-0.8,7.5-1.1,10-1.2v3.7
		c-2.2,0.1-4.4,0.3-6.4,0.6h-0.1v6.7h0.1c2.4,0.4,5.1,0.6,7.9,0.7h0.1V19.1h-0.1c-4.9,0.1-9.4,0.7-12.9,1.7h-0.1v-0.1v-5.3
		c0-0.1,0-0.1,0.1-0.1h3.5c0.1,0,0.1,0,0.1,0.1v0.9h0.1c4.6-0.8,9-0.9,11.2-0.9c5.3,0,10.9,0.6,14.9,1.6
		C149.2,17,149.2,17,149.2,17.1z M92.4,29c0.1,0,0.1,0,0.1-0.1v-9v-0.1c0,0,0,0-0.1,0c-3.4,0.3-6.3,0.7-8.8,1.4l-0.1,0.1v3.2v0.1
		c0,0,0,0,0.1,0c1.5-0.4,3.2-0.8,5.1-1.1h0.1v2.7h-0.1c-1.9,0.3-3.6,0.6-5.2,1l-0.1,0.1v12c0,0,0,0.1,0.1,0.1
		c1.1,0.3,2.2,0.5,3.5,0.7h0.1c0,0,0,0,0-0.1V29.7h0.2C88.9,29.4,90.6,29.2,92.4,29z M113.4,27.3v12c0,0,0,0.1-0.1,0.1
		c-4,1-9.6,1.6-14.9,1.6c-1.4,0-2.8,0-4.2-0.1c-0.1,0-0.1,0-0.1-0.1v-15c0-0.1,0-0.1,0.1-0.1c1.4-0.1,2.9-0.1,4.2-0.1
		c5.3,0,10.9,0.6,14.9,1.6l0,0C113.4,27.2,113.4,27.2,113.4,27.3z M102.3,34.8h-4.5v3h0.3c0.1,0,0.2,0,0.3,0c1.3,0,2.5,0,3.8-0.1
		h0.1C102.3,37.7,102.3,34.8,102.3,34.8z M102.3,28.9L102.3,28.9c-1.3-0.1-2.6-0.1-3.9-0.1c-0.1,0-0.2,0-0.3,0h-0.3v3h4.5
		C102.3,31.8,102.3,28.9,102.3,28.9z M109.8,34.8h-4.4v2.7h0.1c1.5-0.1,2.9-0.3,4.2-0.6h0.1C109.8,36.9,109.8,34.8,109.8,34.8z
		 M109.8,29.7L109.8,29.7c-1.4-0.3-2.8-0.5-4.3-0.6h-0.1v2.7h4.4V29.7z M92.4,40.8L92.4,40.8C92.5,40.8,92.5,40.7,92.4,40.8l0.1-9.9
		v-0.1h-0.1c-1.2,0.1-2.4,0.2-3.5,0.4c-0.1,0-0.1,0.1-0.1,0.1v9c0,0.1,0,0.1,0.1,0.1C90,40.5,91.2,40.7,92.4,40.8z M92.5,18v-3.1
		v-0.1c0,0,0,0-0.1,0l0,0c-3.4,0.3-6.3,0.7-8.8,1.4l-0.1,0.1v3.2v0.1c0,0,0,0,0.1,0c1.7-0.5,4.6-1.2,8.8-1.5
		C92.5,18.1,92.5,18,92.5,18z M113.4,21.2c-4-1-9.6-1.6-14.9-1.6c-1.4,0-2.8,0-4.2,0.1c-0.1,0-0.1,0-0.1,0.1V24v0.1h0.1
		c1.2-0.1,2.3-0.1,3.5-0.1c0.1,0,0.1,0,0.1-0.1v-1.4l0.1-0.1l0,0c0.2,0,0.4,0,0.5,0c4,0,7.9,0.3,11.2,0.9h0.1v1.4
		c0,0.1,0,0.1,0.1,0.1c1.2,0.2,2.4,0.4,3.5,0.7h0.1c0,0,0,0,0-0.1L113.4,21.2C113.4,21.2,113.4,21.2,113.4,21.2z M113.4,16.2
		c-4-1-9.6-1.6-14.9-1.6c-1.4,0-2.8,0-4.2,0.1c-0.1,0-0.1,0-0.1,0.1v3.1V18c0,0,0,0,0.1,0c1.4-0.1,2.8-0.1,4.2-0.1
		c7.6,0,12.6,1.1,14.9,1.8h0.1v-0.1v-3.2C113.4,16.3,113.4,16.2,113.4,16.2z M171.9,27.6V19h0.1c4.9,0.1,9.4,0.7,12.9,1.7h0.1v-0.1
		V17c0-0.1,0-0.1-0.1-0.1c-4.8-1.2-10.2-1.5-13-1.6h-0.1v-0.9c0-0.1,0-0.1-0.1-0.1h-3.5c-0.1,0-0.1,0-0.1,0.1v0.9H168
		c-2.8,0.1-8.2,0.4-13,1.6l-0.1,0.1v3.6v0.1c0,0,0,0,0.1,0c3.4-1,8-1.6,12.9-1.7h0.1v8.6h-0.1c-4.9-0.1-9.4-0.7-12.9-1.7h-0.1V26
		v3.6c0,0.1,0,0.1,0.1,0.1c1.9,0.5,4.1,0.9,6.6,1.2h0.2l-0.1,0.2c-1.8,2.2-4.1,4-6.6,5.2l-0.1,0.1v3.8v0.1h0.1
		c4.5-1.7,8.3-4.8,10.9-8.9v-0.1h0.1c0.6,0,1.3,0.1,1.9,0.1h0.1V41c0,0.1,0,0.1,0.1,0.1h3.5c0.1,0,0.1,0,0.1-0.1v-9.6h0.1
		c0.6,0,1.2,0,1.9-0.1h0.1v0.1c2.6,4,6.5,7.2,10.9,8.9h0.1v-0.1v-3.8c0,0,0-0.1-0.1-0.1c-2.6-1.2-4.9-3-6.6-5.2l-0.1-0.2h0.2
		c2.4-0.3,4.6-0.7,6.6-1.2l0.1-0.1V26v-0.1c0,0,0,0-0.1,0C181.5,26.9,176.9,27.5,171.9,27.6L171.9,27.6z M160.5,25.2
		c1.5,0.2,3.2,0.3,4.8,0.4h0.1v-0.1v-3.1c0-0.1,0-0.1-0.1-0.1c-1.7-0.1-3.3-0.2-4.8-0.5l0,0c0,0,0,0-0.1,0v0.1V25
		C160.4,25.2,160.4,25.2,160.5,25.2z M174.7,22.4v3.1v0.1h0.1c1.7-0.1,3.3-0.2,4.8-0.4c0.1,0,0.1-0.1,0.1-0.1V22v-0.1c0,0,0,0-0.1,0
		l0,0c-1.5,0.2-3.1,0.4-4.8,0.5C174.7,22.3,174.7,22.3,174.7,22.4z"/>
</g>
<path id="XMLID_97_" class="st0" d="M20.9,25.2c1.2,0.4,2.5,0.7,3.9,1c2,0.4,4.1,0.7,6.6,1l0,0h0.1c2.8,0.3,5.4,0.4,7.4,0.4h0.3
	c0.5,0,1,0,1.4,0c0.3,0,0.6,0,1,0c0.5,0,0.9,0,1.3,0h0.3h0.3c0.4,0,0.9,0,1.3,0c0.3,0,0.6,0,1,0c0.5,0,0.9,0,1.4,0h0.3
	c2-0.1,4.6-0.2,7.4-0.4c0.8-0.1,1.6-0.2,2.4-0.3c3.1-0.4,5.7-1,8-1.7c3-1,4.8-2.1,5.5-3.4c0.2-0.5,0.2-1.2,0.2-1.2
	c0-1.3-0.8-2.4-2.3-3.3c0.3,1.5-2.2,2.6-3.3,3l0,0h-0.1c-0.7,0.3-3.6,1.3-9.6,2c-3.7,0.4-8,0.7-12.5,0.7c-7.8,0-13.3-0.7-16.5-1.2
	c-2.4-0.4-4.4-0.9-5.7-1.4c0,0-3.7-1.5-3.4-3.1c-1.5,0.9-2.3,2.1-2.3,3.3c0,0.1,0,0.8,0.2,1.3C16.1,23.2,17.9,24.3,20.9,25.2z
	 M43.2,34.9c12.5,0,23.4-1.9,27.8-4.8v-5c-4.4,2.9-15.5,4.8-27.8,4.8c-2.2,0-4.4-0.1-6.6-0.2v12.1C38.8,42,41,42,43.2,42
	c8.6,0,16.8-0.9,22.4-2.5l0.4-0.1v9.3l-0.2,0.1c-5.7,1.6-13.9,2.6-22.6,2.6c-0.4,0-0.9,0-1.3,0h-0.3v-2.2h0.3c0.4,0,0.8,0,1.3,0
	c7.7,0,15-0.7,20.6-2.1v-5c-5.5,1.3-13,2.1-20.6,2.1c-2.2,0-4.4-0.1-6.6-0.2v12.1c2.2,0.1,4.4,0.2,6.6,0.2c12.2,0,23-1.8,27.6-4.6
	c0.2-0.1,0.2-0.3,0.2-0.5V32.3c-4.4,2.9-15.5,4.8-27.8,4.8c-0.4,0-0.9,0-1.3,0h-0.3v-2.2h0.3C42.4,34.9,42.8,34.9,43.2,34.9z
	 M22.2,54.2c1.5,0.4,3.2,0.7,5,1V48l0.3,0.1c0.5,0.1,1.1,0.2,1.6,0.2h0.3v7.1c1.6,0.2,3.3,0.4,5,0.5v-12c-4.6-0.4-8.8-1-12.2-1.8
	V54.2z M15,24.7l0.1,0.1l0,0v5c2.4,1.8,7.4,3.3,14.2,4.2h0.3v2.2h-0.3C22.4,35.3,17.4,33.8,15,32v18.9l0,0c0,0.2,0,0.3,0.2,0.5
	c1.1,0.8,2.7,1.5,4.9,2.2V39.3l0.4,0.1c3.7,1.1,8.6,1.9,14.1,2.3V29.6C25.3,28.9,18,27.1,15,24.9V24.7z M41.3,15
	c-1.5-1.5-2.4-3.6-2.4-5.7s0.8-4.1,2.3-5.6l2.2,2.2c-0.9,0.9-1.3,2.1-1.3,3.4c0,0.5,0.1,1,0.2,1.5c0.2,0.8,0.7,1.5,1.2,2.1
	c0.4,0.4,0.8,0.8,1.1,1.3l0.1,0.1h0.1c0.7,0,1.3,0,2,0c0.4,0.7,0.9,1.3,1.4,1.8c0.8,0.8,1.1,1.8,1,2.9c-0.6,0-1.1,0-1.6-0.1h-0.3
	c-0.4,0-0.8,0-1.1,0H46v0.2c0,0.6-0.1,1.1-0.3,1.7c-1.2,0-2.3,0-3.4,0c0.3-0.7,0.5-1.4,0.5-2.2C42.8,17.2,42.3,16,41.3,15z
	 M34.5,20.4c1,0.1,2.1,0.2,3.2,0.2c0.1-0.5,0.2-1,0.2-1.5v-0.2H39c0.5,0,1,0,1.4,0c0.2,0,0.5,0,0.7,0c0.1-1-0.3-2-1-2.8
	c-0.5-0.5-1-1.1-1.4-1.8c-0.6,0-1.3,0.1-1.9,0.1h-0.1l-0.1-0.1c-0.3-0.6-0.7-1.1-1.2-1.5c-0.6-0.6-1-1.3-1.2-2.1
	c-0.1-0.5-0.2-1-0.2-1.5c0-1.3,0.5-2.5,1.3-3.4l-2.2-2.2C31.8,5.2,31,7.2,31,9.3c0,2.2,0.8,4.2,2.4,5.7
	C34.8,16.4,35.2,18.6,34.5,20.4z M28.8,19.7c0.9-0.1,1.7-0.2,2.6-0.3c0.6-0.1,1.2-0.1,1.8-0.2c0.2-1.1-0.1-2.3-0.9-3.1
	c-0.4-0.4-0.7-0.8-1-1.2c-4.7,0.6-7.3,1.5-7.3,2.6C24,18.3,25.6,19.1,28.8,19.7z M50.7,18.6c0,0.7-0.1,1.3-0.4,1.9
	c1.2-0.1,2.3-0.2,3.4-0.3c0.1-0.3,0.1-0.5,0.1-0.8v-0.2c0,0,1.5,0.1,3.7,0.4c3.2-0.6,4.8-1.3,4.8-2.2c0-1.2-3.5-2.2-9.3-2.8h-0.1
	v-0.1c-0.4-0.7-0.8-1.3-1.3-1.8s-0.9-1.1-1.1-1.7C50.1,10.5,50,9.9,50,9.3c0-1.3,0.5-2.5,1.3-3.4l-2.2-2.2c-1.5,1.5-2.3,3.5-2.3,5.6
	c0,2.2,0.8,4.2,2.4,5.7C50.2,16,50.7,17.2,50.7,18.6z"/>
</svg>
