<?xml version="1.0" encoding="utf-8"?>
<!-- Generator: Adobe Illustrator 22.1.0, SVG Export Plug-In . SVG Version: 6.00 Build 0)  -->
<svg version="1.1" id="Layer_1" xmlns="http://www.w3.org/2000/svg" xmlns:xlink="http://www.w3.org/1999/xlink" x="0px" y="0px"
	 viewBox="0 0 200 61.1" style="enable-background:new 0 0 200 61.1;" xml:space="preserve">
<style type="text/css">
	.st0{fill:#231815;}
	.st1{fill:#E50012;}
</style>
<g id="XMLID_1_">
	<g id="XMLID_2_">
		<g id="XMLID_210_">
			<g id="XMLID_25_">
				<path id="XMLID_582_" class="st0" d="M97.9,48.1V47c-1-0.2-2.2-0.3-3.4-0.3c-1.2,0-2.4,0.1-3.4,0.3v6.5h1.2v-2.2l0.1,0
					c0.7,0.1,1.4,0.1,2.1,0.1c1.2,0,2.4-0.1,3.4-0.3v-1.2c-1.6,0.3-3.7,0.4-5.6,0.2l-0.1,0V48l0.1,0C94.2,47.7,96.3,47.8,97.9,48.1z
					"/>
				<path id="XMLID_581_" class="st0" d="M106.3,53.1v-6.5h-1.2v5.4l-0.1,0c-1.4,0.2-2.9,0.2-4.3,0l-0.1,0v-5.4h-1.2v6.5
					C101.5,53.5,104.2,53.5,106.3,53.1z"/>
				<rect id="XMLID_580_" x="129.4" y="46.6" class="st0" width="1.2" height="6.8"/>
				<path id="XMLID_579_" class="st0" d="M126.6,51.3l-0.2-0.2c-0.4-0.6-0.9-1.2-1.4-1.7c-1-1.1-2-2-2.9-2.8h-1.2v6.8h1.2v-5.2
					l0.2,0.2c0.6,0.6,1.3,1.2,1.9,1.9c0.9,1.1,1.8,2.2,2.5,3.2h1.2v-6.8h-1.2V51.3z"/>
				<path id="XMLID_578_" class="st0" d="M145.7,51.3l-0.2-0.2c-0.4-0.6-0.9-1.2-1.4-1.7c-1-1.1-2-2-2.9-2.8H140v6.8h1.2v-5.2
					l0.2,0.2c0.6,0.6,1.3,1.2,1.9,1.9c0.9,1.1,1.8,2.2,2.5,3.2h1.2v-6.8h-1.2V51.3z"/>
				<path id="XMLID_575_" class="st0" d="M136.8,46.7c-0.4,0-0.8-0.1-1.3-0.1l-0.1,0c-0.1,0-0.2,0-0.3,0l-0.1,0
					c-0.4,0-0.9,0-1.3,0.1l-2.1,6.7h1.2l0.7-2.1l0.1,0c1.1,0.1,2.2,0.1,3.3,0l0.1,0l0.7,2.1h1.2L136.8,46.7L136.8,46.7L136.8,46.7
					L136.8,46.7z M136.5,50.1c-0.4,0-0.8,0-1.2,0c-0.4,0-0.8,0-1.2,0l-0.1,0l0.7-2.3l0.1,0c0.4,0,0.8,0,1.2,0l0.1,0l0.7,2.3
					L136.5,50.1z"/>
				<path id="XMLID_572_" class="st0" d="M173.9,53.4h1.2l-2.1-6.7c-0.4,0-0.8-0.1-1.3-0.1l-0.1,0c-0.1,0-0.2,0-0.3,0l-0.1,0
					c-0.4,0-0.9,0-1.3,0.1l-2.1,6.7h1.2l0.7-2.1l0.1,0c1.1,0.1,2.2,0.1,3.3,0l0.1,0L173.9,53.4z M172.8,50.1c-0.4,0-0.8,0-1.2,0
					c-0.4,0-0.8,0-1.2,0l-0.1,0l0.7-2.3l0.1,0c0.4,0,0.8,0,1.2,0l0.1,0l0.7,2.3L172.8,50.1z"/>
				<path id="XMLID_571_" class="st0" d="M162.8,52.2L162.8,52.2l-0.1-5.5h-1.2v6.6c1.8,0.3,3.7,0.3,5.5,0V52
					C165.7,52.2,164.2,52.3,162.8,52.2z"/>
				<rect id="XMLID_570_" x="176.3" y="46.6" class="st0" width="1.2" height="6.8"/>
				<rect id="XMLID_569_" x="83.5" y="46.5" class="st1" width="0.7" height="7.1"/>
				<rect id="XMLID_566_" x="113.3" y="46.5" class="st1" width="0.7" height="7"/>
				<rect id="XMLID_538_" x="153.8" y="46.5" class="st1" width="0.7" height="7.1"/>
				<rect id="XMLID_534_" x="184.3" y="46.5" class="st1" width="0.7" height="7.1"/>
			</g>
		</g>
		<path id="XMLID_3_" d="M149.2,17.1v3.6c0,0,0,0.1,0,0.1c0,0,0,0-0.1,0c-3.4-1-8-1.6-12.9-1.7l-0.1,0V23l0.1,0
			c2.8,0.1,8.2,0.4,13,1.6c0,0,0.1,0.1,0.1,0.1v3.6c0,0,0,0.1,0,0.1c0,0,0,0-0.1,0c-3.4-1-8-1.6-12.9-1.7l-0.1,0v8.1l0.1,0
			c4.9-0.1,9.4-0.7,12.9-1.7c0,0,0.1,0,0.1,0c0,0,0,0.1,0,0.1v3.6c0,0.1,0,0.1-0.1,0.1c-4.8,1.2-10.2,1.5-13,1.6l-0.1,0v2.5
			c0,0.1,0,0.1-0.1,0.1h-3.5c-0.1,0-0.1,0-0.1-0.1v-2.5l-0.1,0c-2.8-0.1-8.2-0.4-13-1.6c0,0-0.1-0.1-0.1-0.1v-3.6c0,0,0-0.1,0-0.1
			c0,0,0,0,0.1,0c0,0,0,0,0,0c0.3,0.1,0.7,0.2,1.1,0.3l0.1,0v-9c0-0.1,0-0.1,0.1-0.1c3.6-0.8,7.5-1.1,10-1.2v3.7
			c-2.2,0.1-4.4,0.3-6.4,0.6l-0.1,0v6.7l0.1,0c2.4,0.4,5.1,0.6,7.9,0.7l0.1,0V19.1l-0.1,0c-4.9,0.1-9.4,0.7-12.9,1.7
			c0,0-0.1,0-0.1,0c0,0,0-0.1,0-0.1v-5.3c0-0.1,0-0.1,0.1-0.1h3.5c0.1,0,0.1,0,0.1,0.1v0.9l0.1,0c4.6-0.8,9-0.9,11.2-0.9
			c5.3,0,10.9,0.6,14.9,1.6C149.2,17,149.2,17,149.2,17.1z M92.4,29c0.1,0,0.1,0,0.1-0.1v-9c0,0,0-0.1,0-0.1c0,0,0,0-0.1,0
			c-3.4,0.3-6.3,0.7-8.8,1.4c0,0-0.1,0.1-0.1,0.1v3.2c0,0,0,0.1,0,0.1c0,0,0,0,0.1,0c1.5-0.4,3.2-0.8,5.1-1.1l0.1,0v2.7l-0.1,0
			c-1.9,0.3-3.6,0.6-5.2,1c0,0-0.1,0.1-0.1,0.1v12c0,0,0,0.1,0.1,0.1c1.1,0.3,2.2,0.5,3.5,0.7c0,0,0.1,0,0.1,0c0,0,0,0,0-0.1V29.7
			h0.2C88.9,29.4,90.6,29.2,92.4,29z M113.4,27.3v12c0,0,0,0.1-0.1,0.1c-4,1-9.6,1.6-14.9,1.6c-1.4,0-2.8,0-4.2-0.1
			c-0.1,0-0.1,0-0.1-0.1v-15c0-0.1,0-0.1,0.1-0.1c1.4-0.1,2.9-0.1,4.2-0.1c5.3,0,10.9,0.6,14.9,1.6h0
			C113.4,27.2,113.4,27.2,113.4,27.3z M102.3,34.8h-4.5v3l0.3,0c0.1,0,0.2,0,0.3,0c1.3,0,2.5,0,3.8-0.1l0.1,0V34.8z M102.3,28.9
			l-0.1,0c-1.2-0.1-2.5-0.1-3.8-0.1c-0.1,0-0.2,0-0.3,0l-0.3,0v3h4.5V28.9z M109.8,34.8h-4.4v2.7l0.1,0c1.5-0.1,2.9-0.3,4.2-0.6
			l0.1,0V34.8z M109.8,29.7L109.8,29.7c-1.4-0.3-2.8-0.5-4.3-0.6l-0.1,0v2.7h4.4V29.7z M92.4,40.8C92.4,40.8,92.4,40.8,92.4,40.8
			c0.1,0,0.1-0.1,0.1-0.1v-9.8c0,0,0-0.1,0-0.1c0,0-0.1,0-0.1,0c-1.2,0.1-2.4,0.2-3.5,0.4c-0.1,0-0.1,0.1-0.1,0.1v9
			c0,0.1,0,0.1,0.1,0.1C90,40.5,91.2,40.7,92.4,40.8z M92.5,18v-3.1c0,0,0-0.1,0-0.1c0,0,0,0-0.1,0c0,0,0,0,0,0
			c-3.4,0.3-6.3,0.7-8.8,1.4c0,0-0.1,0.1-0.1,0.1v3.2c0,0,0,0.1,0,0.1c0,0,0,0,0.1,0c1.7-0.5,4.6-1.2,8.8-1.5
			C92.5,18.1,92.5,18,92.5,18z M113.4,21.2c-4-1-9.6-1.6-14.9-1.6c-1.4,0-2.8,0-4.2,0.1c-0.1,0-0.1,0-0.1,0.1l0,4.2c0,0,0,0.1,0,0.1
			c0,0,0.1,0,0.1,0c1.2-0.1,2.3-0.1,3.5-0.1c0.1,0,0.1,0,0.1-0.1l0-1.4l0.1-0.1l0,0c0.2,0,0.4,0,0.5,0c4,0,7.9,0.3,11.2,0.9l0.1,0
			v1.4c0,0.1,0,0.1,0.1,0.1c1.2,0.2,2.4,0.4,3.5,0.7c0,0,0.1,0,0.1,0c0,0,0,0,0-0.1v-4.2C113.4,21.2,113.4,21.2,113.4,21.2z
			 M113.4,16.2c-4-1-9.6-1.6-14.9-1.6c-1.4,0-2.8,0-4.2,0.1c-0.1,0-0.1,0-0.1,0.1v3.1c0,0,0,0.1,0,0.1c0,0,0,0,0.1,0
			c1.4-0.1,2.8-0.1,4.2-0.1c7.6,0,12.6,1.1,14.9,1.8c0,0,0.1,0,0.1,0c0,0,0-0.1,0-0.1v-3.2C113.4,16.3,113.4,16.2,113.4,16.2z
			 M171.9,27.6v-8.6l0.1,0c4.9,0.1,9.4,0.7,12.9,1.7c0,0,0.1,0,0.1,0c0,0,0-0.1,0-0.1v-3.6c0-0.1,0-0.1-0.1-0.1
			c-4.8-1.2-10.2-1.5-13-1.6l-0.1,0v-0.9c0-0.1,0-0.1-0.1-0.1h-3.5c-0.1,0-0.1,0-0.1,0.1v0.9l-0.1,0c-2.8,0.1-8.2,0.4-13,1.6
			c0,0-0.1,0.1-0.1,0.1v3.6c0,0,0,0.1,0,0.1c0,0,0,0,0.1,0c3.4-1,8-1.6,12.9-1.7l0.1,0v8.6l-0.1,0c-4.9-0.1-9.4-0.7-12.9-1.7
			c0,0-0.1,0-0.1,0c0,0,0,0.1,0,0.1v3.6c0,0.1,0,0.1,0.1,0.1c1.9,0.5,4.1,0.9,6.6,1.2l0.2,0l-0.1,0.2c-1.8,2.2-4.1,4-6.6,5.2
			c0,0-0.1,0.1-0.1,0.1v3.8c0,0,0,0.1,0,0.1c0,0,0.1,0,0.1,0c4.5-1.7,8.3-4.8,10.9-8.9l0-0.1l0.1,0c0.6,0,1.3,0.1,1.9,0.1l0.1,0v9.6
			c0,0.1,0,0.1,0.1,0.1h3.5c0.1,0,0.1,0,0.1-0.1v-9.6l0.1,0c0.6,0,1.2,0,1.9-0.1l0.1,0l0,0.1c2.6,4,6.5,7.2,10.9,8.9
			c0,0,0.1,0,0.1,0c0,0,0-0.1,0-0.1v-3.8c0,0,0-0.1-0.1-0.1c-2.6-1.2-4.9-3-6.6-5.2l-0.1-0.2l0.2,0c2.4-0.3,4.6-0.7,6.6-1.2
			c0,0,0.1-0.1,0.1-0.1V26c0,0,0-0.1,0-0.1c0,0,0,0-0.1,0c-3.4,1-8,1.6-12.9,1.7L171.9,27.6z M160.5,25.2c1.5,0.2,3.2,0.3,4.8,0.4
			c0,0,0.1,0,0.1,0c0,0,0-0.1,0-0.1v-3.1c0-0.1,0-0.1-0.1-0.1c-1.7-0.1-3.3-0.2-4.8-0.5c0,0,0,0,0,0c0,0,0,0-0.1,0c0,0,0,0.1,0,0.1
			v3.1C160.4,25.2,160.4,25.2,160.5,25.2z M174.7,22.4v3.1c0,0,0,0.1,0,0.1c0,0,0.1,0,0.1,0c1.7-0.1,3.3-0.2,4.8-0.4
			c0.1,0,0.1-0.1,0.1-0.1v-3.1c0,0,0-0.1,0-0.1c0,0,0,0-0.1,0c0,0,0,0,0,0c-1.5,0.2-3.1,0.4-4.8,0.5
			C174.7,22.3,174.7,22.3,174.7,22.4z"/>
	</g>
	<path id="XMLID_97_" class="st1" d="M20.9,25.2c1.2,0.4,2.5,0.7,3.9,1c2,0.4,4.1,0.7,6.6,1l0,0l0.1,0c2.8,0.3,5.4,0.4,7.4,0.4
		l0.3,0c0.5,0,1,0,1.4,0c0.3,0,0.6,0,1,0c0.5,0,0.9,0,1.3,0l0.3,0l0.3,0c0.4,0,0.9,0,1.3,0c0.3,0,0.6,0,1,0c0.5,0,0.9,0,1.4,0l0.3,0
		c2-0.1,4.6-0.2,7.4-0.4c0.8-0.1,1.6-0.2,2.4-0.3c3.1-0.4,5.7-1,8-1.7c3-1,4.8-2.1,5.5-3.4c0.2-0.5,0.2-1.2,0.2-1.2
		c0-1.3-0.8-2.4-2.3-3.3c0.3,1.5-2.2,2.6-3.3,3l0,0l-0.1,0c-0.7,0.3-3.6,1.3-9.6,2C52,22.7,47.7,23,43.2,23
		c-7.8,0-13.3-0.7-16.5-1.2c-2.4-0.4-4.4-0.9-5.7-1.4c0,0-3.7-1.5-3.4-3.1c-1.5,0.9-2.3,2.1-2.3,3.3c0,0.1,0,0.8,0.2,1.3
		C16.1,23.2,17.9,24.3,20.9,25.2z M43.2,34.9c12.5,0,23.4-1.9,27.8-4.8l0-5c-4.4,2.9-15.5,4.8-27.8,4.8c-2.2,0-4.4-0.1-6.6-0.2v12.1
		C38.8,42,41,42,43.2,42c8.6,0,16.8-0.9,22.4-2.5l0.4-0.1v9.3l-0.2,0.1c-5.7,1.6-13.9,2.6-22.6,2.6c-0.4,0-0.9,0-1.3,0l-0.3,0v-2.2
		l0.3,0c0.4,0,0.8,0,1.3,0c7.7,0,15-0.7,20.6-2.1v-5c-5.5,1.3-13,2.1-20.6,2.1c-2.2,0-4.4-0.1-6.6-0.2v12.1c2.2,0.1,4.4,0.2,6.6,0.2
		c12.2,0,23-1.8,27.6-4.6c0.2-0.1,0.2-0.3,0.2-0.5V32.3c-4.4,2.9-15.5,4.8-27.8,4.8c-0.4,0-0.9,0-1.3,0l-0.3,0v-2.2l0.3,0
		C42.4,34.9,42.8,34.9,43.2,34.9z M22.2,54.2c1.5,0.4,3.2,0.7,5,1V48l0.3,0.1c0.5,0.1,1.1,0.2,1.6,0.2l0.3,0v7.1
		c1.6,0.2,3.3,0.4,5,0.5V43.9c-4.6-0.4-8.8-1-12.2-1.8V54.2z M15,24.7l0.1,0.1c0,0,0,0,0,0v5c2.4,1.8,7.4,3.3,14.2,4.2l0.3,0v2.2
		l-0.3,0C22.4,35.3,17.4,33.8,15,32l0,18.9l0,0c0,0.2,0,0.3,0.2,0.5c1.1,0.8,2.7,1.5,4.9,2.2l0-14.3l0.4,0.1
		c3.7,1.1,8.6,1.9,14.1,2.3V29.6C25.3,28.9,18,27.1,15,24.9L15,24.7z M41.3,15c-1.5-1.5-2.4-3.6-2.4-5.7c0-2.1,0.8-4.1,2.3-5.6
		l2.2,2.2c-0.9,0.9-1.3,2.1-1.3,3.4c0,0.5,0.1,1,0.2,1.5c0.2,0.8,0.7,1.5,1.2,2.1c0.4,0.4,0.8,0.8,1.1,1.3l0.1,0.1l0.1,0
		c0.7,0,1.3,0,2,0c0.4,0.7,0.9,1.3,1.4,1.8c0.8,0.8,1.1,1.8,1,2.9c-0.6,0-1.1,0-1.6-0.1l-0.3,0c-0.4,0-0.8,0-1.1,0l-0.2,0l0,0.2
		c0,0.6-0.1,1.1-0.3,1.7c-1.2,0-2.3,0-3.4,0c0.3-0.7,0.5-1.4,0.5-2.2C42.8,17.2,42.3,16,41.3,15z M34.5,20.4c1,0.1,2.1,0.2,3.2,0.2
		c0.1-0.5,0.2-1,0.2-1.5l0-0.2l1.1,0c0.5,0,1,0,1.4,0c0.2,0,0.5,0,0.7,0c0.1-1-0.3-2-1-2.8c-0.5-0.5-1-1.1-1.4-1.8
		c-0.6,0-1.3,0.1-1.9,0.1l-0.1,0l-0.1-0.1c-0.3-0.6-0.7-1.1-1.2-1.5c-0.6-0.6-1-1.3-1.2-2.1c-0.1-0.5-0.2-1-0.2-1.5
		c0-1.3,0.5-2.5,1.3-3.4l-2.2-2.2C31.8,5.2,31,7.2,31,9.3c0,2.2,0.8,4.2,2.4,5.7C34.8,16.4,35.2,18.6,34.5,20.4z M28.8,19.7
		c0.9-0.1,1.7-0.2,2.6-0.3c0.6-0.1,1.2-0.1,1.8-0.2c0.2-1.1-0.1-2.3-0.9-3.1c-0.4-0.4-0.7-0.8-1-1.2c-4.7,0.6-7.3,1.5-7.3,2.6
		C24,18.3,25.6,19.1,28.8,19.7z M50.7,18.6c0,0.7-0.1,1.3-0.4,1.9c1.2-0.1,2.3-0.2,3.4-0.3c0.1-0.3,0.1-0.5,0.1-0.8l0-0.2
		c0,0,1.5,0.1,3.7,0.4c3.2-0.6,4.8-1.3,4.8-2.2c0-1.2-3.5-2.2-9.3-2.8l-0.1,0l0-0.1c-0.4-0.7-0.8-1.3-1.3-1.8
		c-0.5-0.5-0.9-1.1-1.1-1.7C50.1,10.5,50,9.9,50,9.3c0-1.3,0.5-2.5,1.3-3.4l-2.2-2.2c-1.5,1.5-2.3,3.5-2.3,5.6
		c0,2.2,0.8,4.2,2.4,5.7C50.2,16,50.7,17.2,50.7,18.6z"/>
</g>
</svg>
